<?xml version="1.0" standalone="no"?>
<!DOCTYPE svg PUBLIC "-//W3C//DTD SVG 20010904//EN"
 "http://www.w3.org/TR/2001/REC-SVG-20010904/DTD/svg10.dtd">
<svg version="1.0" xmlns="http://www.w3.org/2000/svg"
 width="417.000000pt" height="626.000000pt" viewBox="0 0 417.000000 626.000000"
 preserveAspectRatio="xMidYMid meet">

<g transform="translate(0.000000,626.000000) scale(0.100000,-0.100000)"
fill="#000000" stroke="none">
<path d="M0 4866 l0 -1395 57 35 c31 19 72 40 90 46 21 8 33 19 33 31 0 32 54
77 93 77 66 0 90 -69 40 -116 -24 -23 -25 -25 -10 -42 10 -10 17 -24 17 -30 0
-7 4 -12 9 -12 5 0 14 -14 21 -31 l13 -31 23 30 c13 17 48 46 78 66 31 20 58
41 61 46 16 26 88 49 181 59 54 7 128 17 164 23 58 11 62 13 35 19 -30 7 -30
7 -3 8 14 0 34 4 43 7 15 6 15 8 -1 25 -15 16 -15 20 -1 34 9 9 19 31 22 49 4
18 19 48 35 66 16 19 27 37 24 41 -2 4 0 10 6 14 5 3 10 17 10 31 0 13 5 24
10 24 6 0 10 9 10 20 0 11 7 20 15 20 9 0 18 7 21 15 4 8 10 12 15 9 6 -3 9
10 7 31 -1 21 3 40 11 44 7 5 12 11 12 15 -3 20 0 26 9 21 6 -3 10 3 10 14 0
11 11 28 25 37 14 9 22 20 19 25 -3 5 0 9 5 9 6 0 10 3 10 8 -3 19 2 33 11 27
6 -3 10 2 10 13 0 10 11 24 25 30 13 6 27 22 30 34 6 24 70 72 84 63 14 -8 22
25 11 43 -9 14 -10 12 -5 -8 5 -19 4 -21 -4 -10 -6 8 -8 25 -4 37 3 14 1 23
-7 23 -6 0 -9 3 -7 8 3 4 -1 39 -9 77 -18 92 -17 140 2 204 17 59 55 101 90
101 32 0 31 -26 -3 -42 -81 -40 -101 -187 -46 -333 19 -49 20 -50 57 -48 35 2
38 1 31 -20 -23 -74 -17 -87 47 -105 l36 -10 17 117 c9 64 20 130 24 146 l9
30 0 -35 c1 -19 -3 -57 -7 -83 -4 -26 -5 -50 -1 -52 4 -3 31 51 60 120 43 102
70 147 152 257 116 155 146 188 169 188 21 0 36 17 44 55 14 56 47 104 76 110
37 8 72 -3 216 -69 67 -31 136 -56 152 -56 17 0 49 -9 71 -21 24 -13 47 -18
58 -14 48 20 180 2 233 -31 55 -34 63 -65 54 -207 -4 -67 -7 -142 -8 -167 0
-42 -1 -43 -11 -19 -20 47 -36 58 -134 89 -54 17 -114 43 -135 56 -47 31 -63
26 -76 -23 -19 -68 -15 -93 19 -104 38 -14 38 -22 -4 -47 -40 -24 -77 -72 -99
-130 -21 -54 -22 -68 -2 -52 13 11 15 8 15 -14 0 -39 41 -76 83 -76 45 0 76
26 83 70 7 40 -21 85 -59 94 -12 2 4 3 36 2 72 -3 110 -34 111 -89 1 -35 16
-42 16 -8 0 9 9 26 19 38 10 11 31 42 46 69 15 27 25 39 22 27 -3 -13 -4 -23
-3 -23 8 0 54 48 59 61 5 12 5 12 6 -1 0 -8 -6 -24 -14 -34 -14 -18 -20 -135
-7 -121 3 3 5 26 4 52 -1 37 1 44 9 30 5 -9 8 -21 5 -26 -8 -12 28 -42 53 -44
11 -1 21 -4 21 -8 0 -3 17 -11 38 -17 37 -12 163 -99 215 -150 43 -41 117
-140 117 -156 0 -7 7 -19 14 -26 8 -6 20 -28 26 -48 10 -33 47 -120 71 -164 5
-10 9 -29 9 -42 0 -14 7 -31 15 -39 8 -8 11 -17 8 -21 -4 -3 0 -6 7 -6 7 0 11
-3 7 -6 -8 -8 20 -64 32 -64 17 0 85 -192 83 -234 -1 -10 27 -78 62 -150 34
-72 71 -153 81 -181 20 -57 54 -94 66 -73 4 7 24 96 44 198 37 186 60 255 98
291 26 24 55 24 145 -1 39 -11 74 -20 77 -20 3 0 5 635 5 1410 l0 1410 -2085
0 -2085 0 0 -1394z m3020 957 c28 -56 36 -132 21 -189 -13 -50 -66 -130 -95
-146 -18 -10 -17 -7 7 23 51 64 69 108 74 188 4 69 2 81 -24 133 -17 32 -25
54 -18 48 6 -5 22 -31 35 -57z m-175 -33 c3 -5 1 -10 -4 -10 -6 0 -11 5 -11
10 0 6 2 10 4 10 3 0 8 -4 11 -10z m-986 -250 c1 -26 -2 -31 -9 -20 -5 8 -9
33 -9 55 0 31 2 36 9 20 5 -11 9 -36 9 -55z m-156 -15 c-3 -9 -8 -14 -10 -11
-3 3 -2 9 2 15 9 16 15 13 8 -4z m-44 -158 c15 -39 14 -72 -3 -86 -11 -10 -16
-8 -21 9 -4 11 -4 34 0 50 4 16 3 40 -1 52 -7 22 -8 22 -20 -7 l-13 -30 -1 41
c0 25 6 46 15 54 8 7 16 20 16 29 1 9 5 -6 9 -34 4 -27 13 -63 19 -78z m-80
-87 c8 -14 24 -36 36 -50 12 -14 25 -37 29 -52 3 -14 9 -34 13 -45 14 -38 -26
8 -59 68 -18 32 -35 56 -39 53 -4 -2 -12 4 -18 13 -6 10 -11 14 -11 9 0 -5 16
-39 36 -75 19 -36 26 -55 15 -41 -12 14 -32 47 -46 74 -26 53 -25 86 4 120 15
17 16 17 22 -15 3 -19 11 -45 18 -59z m1630 56 c25 -19 55 -44 65 -55 19 -21
19 -22 -4 -46 -13 -14 -27 -25 -32 -25 -5 0 3 10 17 23 l27 23 -38 34 c-22 19
-52 45 -69 57 -16 12 -26 23 -21 23 4 0 29 -15 55 -34z m-1578 -223 c13 -16
12 -17 -3 -4 -10 7 -18 15 -18 17 0 8 8 3 21 -13z m-92 -58 c-1 -31 3 -61 9
-67 6 -6 8 -18 4 -27 -3 -9 13 1 36 22 23 20 48 37 55 37 9 0 9 -2 -1 -9 -11
-6 -10 -10 5 -15 17 -7 17 -8 1 -20 -11 -8 -14 -17 -8 -26 12 -19 1 -40 -29
-53 -26 -10 -26 -11 -3 -15 12 -2 20 -8 17 -13 -4 -5 -1 -9 5 -9 6 0 9 -4 6
-9 -9 -15 -88 -21 -101 -7 -14 14 -26 63 -30 129 -2 26 -6 60 -10 74 -4 17 0
31 11 44 27 30 35 22 33 -36z m129 26 c-7 -12 -16 -21 -21 -21 -8 0 -2 14 16
38 16 20 20 6 5 -17z m1650 -58 c6 -19 7 -45 2 -61 -7 -24 -8 -23 -9 16 -1 23
-10 62 -22 85 -19 39 -19 40 -1 18 11 -14 24 -40 30 -58z m-252 -302 c-15 -27
-74 -81 -89 -81 -15 0 -6 16 15 25 12 6 26 19 32 30 6 10 17 26 24 33 7 8 16
28 20 46 7 31 7 31 10 4 2 -15 -4 -40 -12 -57z m-140 -103 c-9 -12 -16 -19
-16 -15 0 11 24 47 28 42 2 -2 -3 -14 -12 -27z m-1404 -62 c-2 -18 3 -47 12
-64 19 -36 21 -72 5 -72 -6 0 -8 7 -5 16 4 9 -3 37 -15 61 -17 36 -19 49 -10
69 14 33 18 30 13 -10z m1147 -87 c35 -12 61 -53 61 -96 l-1 -28 -14 32 c-18
43 -67 67 -137 67 -60 1 -63 13 -6 26 48 11 61 11 97 -1z m-69 -85 c0 -17 -22
-14 -28 4 -2 7 3 12 12 12 9 0 16 -7 16 -16z m-40 -106 c0 -5 -9 -8 -19 -8
-20 0 -51 24 -51 39 0 10 69 -21 70 -31z"/>
<path d="M1938 4803 c-32 -35 -58 -85 -58 -114 0 -12 -19 -41 -45 -67 -50 -49
-51 -63 -9 -84 16 -8 40 -37 59 -72 18 -33 46 -72 63 -87 31 -28 103 -54 125
-46 7 2 -3 7 -21 11 -18 4 -55 29 -83 55 -46 42 -52 52 -56 97 -6 56 2 67 56
78 33 6 34 5 17 -13 -50 -55 -18 -141 54 -141 52 0 83 27 84 73 1 21 4 37 8
37 11 0 48 -86 48 -114 0 -16 -11 -38 -26 -53 -30 -30 -26 -36 38 -53 43 -11
49 -10 76 9 61 43 89 175 54 254 l-21 47 24 26 c31 33 59 94 48 105 -4 4 -42
15 -83 24 -41 9 -104 25 -139 35 -35 11 -91 20 -125 20 -55 0 -65 -3 -88 -27z
m106 -366 c-17 -10 -54 9 -54 27 0 11 7 10 34 -3 24 -12 30 -18 20 -24z"/>
<path d="M1713 4383 c-36 -88 -56 -195 -50 -280 4 -77 45 -215 102 -348 7 -16
16 -41 20 -55 4 -14 16 -42 26 -62 11 -21 18 -38 15 -38 -10 0 -90 136 -142
243 -32 64 -62 117 -66 117 -4 0 -10 -16 -14 -36 -12 -65 -54 -169 -75 -186
-24 -20 -49 -14 -49 13 0 10 16 58 36 105 19 47 33 89 30 92 -3 3 -6 0 -6 -6
0 -7 -5 -12 -11 -12 -5 0 -8 4 -5 8 11 17 -38 10 -73 -12 -20 -12 -56 -30 -80
-40 -24 -9 -62 -35 -85 -56 -22 -22 -49 -42 -58 -45 -9 -4 -27 -22 -38 -41
-12 -18 -26 -34 -31 -34 -5 0 -9 -10 -9 -22 0 -33 -11 -68 -21 -68 -4 0 -10
15 -13 33 -2 17 -3 -13 -2 -68 3 -103 -7 -104 -19 -2 -4 31 -11 59 -15 62 -4
2 -24 -4 -46 -15 -21 -10 -84 -30 -139 -45 -87 -22 -112 -25 -196 -19 -72 5
-101 3 -120 -7 -23 -13 -21 -14 34 -20 104 -12 172 -78 235 -231 70 -168 92
-317 53 -359 -33 -35 -40 -92 -28 -224 7 -70 5 -110 -8 -180 -11 -61 -19 -186
-25 -390 -7 -273 -7 -302 9 -324 13 -19 40 -30 126 -52 61 -15 144 -40 185
-54 50 -18 110 -29 181 -34 161 -13 329 -77 329 -126 0 -19 91 -50 175 -60 51
-6 75 -24 75 -57 0 -9 9 -22 20 -28 12 -6 20 -21 20 -35 0 -14 2 -25 4 -25 4
0 149 66 206 93 38 18 54 37 43 48 -11 11 -40 2 -46 -14 -2 -7 -3 -5 -2 3 2
23 -30 51 -44 37 -8 -8 -11 -7 -11 3 0 13 87 249 120 325 10 22 27 63 38 92
21 53 78 138 99 147 6 3 29 -8 50 -23 33 -24 42 -40 63 -107 14 -43 24 -85 24
-91 -1 -7 2 -11 6 -8 11 7 22 -24 13 -37 -3 -6 -1 -8 4 -5 12 8 26 -20 17 -34
-3 -5 -1 -8 4 -7 6 2 24 -16 41 -39 17 -23 24 -40 16 -37 -11 5 -13 -2 -8 -33
3 -21 10 -39 15 -41 17 -7 7 -20 -12 -15 -11 3 -20 3 -20 0 0 -6 132 -47 151
-47 7 0 32 10 57 21 55 27 156 23 218 -9 52 -26 111 -94 124 -141 12 -42 13
-101 3 -101 -5 0 -13 -11 -20 -25 -9 -21 -7 -35 13 -86 14 -34 23 -63 21 -65
-4 -4 -33 57 -116 246 -20 47 -41 85 -46 86 -6 0 -17 4 -25 7 -22 10 -309 23
-303 14 8 -14 87 -50 172 -78 83 -29 111 -43 111 -60 0 -5 -12 -1 -27 8 -15
10 -30 17 -33 17 -3 -1 -16 3 -29 8 -14 5 -30 7 -36 4 -7 -2 -54 7 -105 20
-51 13 -102 22 -112 18 -10 -3 -18 -1 -18 5 0 6 -10 11 -22 11 -22 -1 -22 -1
-3 -12 11 -6 40 -32 65 -58 35 -37 60 -52 112 -69 37 -13 78 -32 90 -43 13
-11 16 -16 8 -11 -8 4 -17 8 -20 8 -12 2 -88 28 -117 41 -17 8 -36 14 -42 14
-6 0 -11 3 -11 8 0 4 -18 16 -40 26 -22 11 -40 22 -40 26 0 4 -18 10 -40 14
-22 3 -40 11 -40 18 0 11 -117 7 -187 -8 -47 -9 -30 -24 25 -23 46 2 46 2 12
9 -27 6 -18 8 40 8 46 0 67 -2 55 -7 -17 -7 -15 -9 14 -16 42 -9 70 -40 71
-78 0 -25 -3 -27 -22 -21 -13 4 -28 14 -34 22 -12 16 -83 30 -155 31 -33 1
-51 7 -64 21 -10 11 -13 20 -7 20 7 0 12 5 12 10 0 12 -33 13 -45 1 -6 -5 -35
-11 -65 -14 -30 -3 -79 -13 -108 -22 -29 -9 -63 -15 -75 -13 -17 2 -30 -9 -57
-50 l-34 -52 -13 25 c-8 14 -22 25 -31 25 -23 0 -62 36 -62 57 0 27 -18 2 -40
-53 l-19 -49 5 45 6 46 -43 3 c-24 2 -50 3 -56 4 -7 0 -13 6 -13 14 0 17 -20
17 -20 1 0 -8 -4 -7 -10 3 -5 9 -5 29 0 50 21 85 22 86 3 52 -9 -18 -23 -33
-30 -33 -7 0 -13 -4 -13 -10 0 -5 -17 -10 -38 -10 -26 0 -42 6 -52 20 -8 11
-21 20 -30 20 -8 0 -29 16 -45 36 -17 21 -36 42 -43 48 -8 6 -27 24 -42 39
-31 33 -59 33 -75 0 -30 -59 -69 -64 -176 -23 -30 11 -65 20 -77 20 -13 0 -36
6 -50 14 -15 8 -47 19 -72 26 -25 7 -54 16 -65 20 -53 19 -94 30 -117 30 -15
0 -39 11 -55 24 -15 13 -52 38 -81 56 -50 30 -60 50 -25 50 9 0 21 7 27 15 6
9 41 21 79 27 56 9 80 8 144 -6 42 -9 77 -15 79 -13 11 11 -88 86 -132 101
-44 14 -66 15 -174 6 -109 -10 -132 -15 -184 -43 -105 -56 -208 -182 -282
-344 -33 -71 -34 -79 -34 -197 l0 -124 45 -50 c24 -27 41 -53 37 -57 -4 -5 -1
-5 6 -1 7 4 23 1 36 -7 12 -8 42 -21 67 -28 l44 -14 -45 -6 c-25 -4 -78 -5
-117 -2 l-73 4 0 -531 0 -530 2085 0 2085 0 0 1709 0 1710 -54 15 c-30 9 -74
19 -98 22 -43 6 -44 6 -71 -42 -24 -41 -27 -44 -22 -19 9 40 -9 21 -23 -25 -6
-19 -49 -228 -96 -465 -47 -236 -99 -495 -116 -575 -16 -80 -30 -149 -30 -154
0 -5 -2 -7 -5 -4 -3 3 11 90 30 193 19 104 33 190 30 193 -4 4 -11 -21 -17
-63 -3 -16 -6 -14 -19 13 -12 24 -18 29 -22 18 -8 -20 -47 -17 -39 4 3 10 2
12 -5 5 -5 -5 -18 -32 -28 -60 -9 -27 -39 -92 -66 -144 -48 -93 -63 -133 -34
-95 12 16 14 17 15 2 0 -9 -8 -19 -18 -22 -10 -4 -24 -23 -30 -43 -15 -48 -8
-55 8 -8 7 20 14 34 17 31 3 -2 -2 -26 -11 -53 -13 -37 -26 -55 -61 -78 -25
-16 -45 -37 -46 -45 -1 -8 -2 -38 -3 -67 -1 -28 -5 -55 -9 -59 -4 -4 -7 0 -7
8 0 23 -26 42 -36 27 -4 -8 -3 -9 4 -5 7 4 13 2 13 -3 3 -21 5 -26 16 -46 7
-11 13 -16 13 -10 0 12 35 -37 35 -50 0 -19 26 -55 35 -50 6 4 7 -1 3 -11 -5
-13 -3 -15 7 -9 9 5 11 4 6 -4 -5 -7 3 -28 16 -49 44 -67 53 -102 51 -192 -1
-47 -6 -96 -11 -110 -8 -18 -11 -20 -11 -7 -1 10 -9 17 -20 17 -11 0 -42 22
-69 50 -50 51 -81 66 -67 33 15 -34 17 -128 5 -173 l-13 -45 -17 87 c-19 89
-45 141 -68 133 -8 -3 -23 2 -35 10 -15 11 -24 12 -34 3 -10 -8 -24 -1 -58 31
-25 23 -56 47 -70 53 -14 6 -25 15 -25 19 0 14 -75 29 -141 29 -87 -1 -99 -2
-99 -11 0 -5 -7 -6 -15 -2 -14 5 -13 7 3 19 11 7 43 22 71 34 29 11 65 30 81
42 16 11 78 38 137 59 59 21 103 38 96 38 -7 1 -10 8 -7 16 4 11 -1 15 -17 16
-20 1 -21 2 -5 6 11 3 26 11 33 19 10 10 27 12 60 7 33 -4 44 -3 39 5 -8 13
20 6 42 -11 23 -18 25 1 3 37 -12 19 -36 47 -53 62 -44 36 -86 28 -189 -41
-82 -54 -113 -61 -143 -34 -12 10 35 81 69 106 14 10 36 26 48 36 22 18 21 18
-39 14 -86 -7 -154 24 -150 69 4 41 19 74 32 74 8 0 27 8 41 17 31 20 152 26
166 9 5 -6 6 2 2 19 -3 17 -13 37 -21 45 -14 13 -15 12 -8 -14 l7 -29 -63 6
c-38 3 -73 1 -88 -6 -20 -9 -26 -9 -30 1 -2 6 -14 12 -27 12 -48 0 -205 172
-205 224 0 9 -7 28 -16 41 -13 19 -15 38 -10 83 6 52 5 55 -9 38 -8 -11 -15
-26 -15 -34 0 -7 -5 -10 -11 -6 -9 5 -10 41 -6 123 6 124 12 152 30 146 41
-12 67 -14 67 -5 0 5 -12 10 -27 10 -16 0 -48 9 -72 20 -59 27 -205 116 -221
135 -20 25 -29 17 -17 -15 13 -33 6 -44 -33 -54 -25 -6 -25 -6 -2 5 25 14 28
37 8 64 -13 19 -15 19 -57 0 -51 -23 -207 -173 -234 -225 -10 -19 -21 -37 -25
-40 -8 -6 -69 -101 -104 -162 -15 -27 -29 -48 -32 -48 -7 0 22 53 87 162 33
54 59 100 59 104 0 3 8 18 18 32 33 48 43 94 54 267 12 196 11 264 -4 282 -7
9 -7 13 1 13 6 0 11 -3 11 -7 0 -5 16 -26 36 -48 23 -27 33 -33 30 -20 -19 76
-20 72 21 95 21 12 29 18 18 14 -37 -14 -115 -13 -130 2 -8 8 -17 15 -20 14
-21 -1 -25 3 -25 23 0 75 78 153 230 228 l55 28 -42 1 c-45 0 -148 34 -159 52
-5 8 6 9 35 4 53 -8 71 1 42 23 l-21 16 23 1 c12 1 27 3 32 4 6 1 45 2 88 1
84 -1 92 -11 30 -38 -19 -8 -33 -17 -30 -19 9 -10 91 32 115 58 l23 26 -44 -5
c-53 -6 -147 14 -147 31 0 12 35 32 110 65 49 21 101 58 67 47 -64 -20 -65
-20 -131 41 -46 44 -76 63 -109 72 -25 6 -50 19 -56 28 -8 15 -12 14 -44 -10
-46 -35 -57 -34 -87 8 -14 20 -55 55 -92 80 -70 47 -102 82 -137 153 -12 23
-24 42 -27 42 -3 0 -12 -17 -21 -37z m281 -425 c-5 -7 -2 -9 8 -5 21 7 31 -3
17 -19 -14 -17 7 -29 26 -14 10 8 15 8 20 -1 4 -6 1 -15 -6 -20 -13 -8 -12
-10 11 -13 5 0 15 -7 22 -14 30 -30 -40 7 -101 54 -8 7 -9 54 0 48 5 -3 6 -10
3 -16z m-819 -622 c31 -73 38 -85 47 -80 8 5 10 0 12 -28 1 -7 11 -23 24 -34
12 -12 22 -25 22 -29 0 -5 12 -24 27 -43 26 -34 26 -35 7 -49 -31 -23 -97 -60
-120 -67 -37 -11 -46 31 -50 244 -2 123 0 183 5 161 5 -18 17 -52 26 -75z
m827 20 c-20 -35 -38 -63 -40 -61 -6 6 58 125 67 125 5 0 -7 -29 -27 -64z
m-376 -529 l47 -119 31 46 c17 25 36 46 43 46 6 0 15 10 18 23 8 25 44 67 58
67 17 0 0 -104 -25 -156 -36 -73 -64 -115 -71 -107 -4 3 -7 -1 -7 -11 0 -31
32 -31 57 0 32 39 107 193 137 279 26 75 33 68 15 -17 -10 -47 -120 -330 -179
-460 -15 -35 -19 -58 -14 -83 3 -19 2 -35 -3 -35 -10 0 -39 56 -94 182 -55
128 -58 173 -5 63 43 -87 62 -106 30 -30 -15 36 -89 343 -99 415 -9 56 9 25
61 -103z m602 93 c-26 -17 -79 -67 -120 -112 -86 -95 -101 -115 -90 -121 10
-7 -4 -252 -23 -377 -17 -109 -81 -330 -96 -330 -5 0 -9 -6 -9 -14 0 -17 -27
-29 -36 -15 -3 6 -17 14 -30 19 -23 9 -34 30 -14 30 12 0 2 236 -12 273 -6 15
-17 27 -24 27 -15 0 -17 12 -8 58 4 18 11 29 18 26 6 -2 22 17 35 43 35 71
139 252 177 306 19 26 34 51 34 55 0 4 14 22 30 40 17 18 30 36 30 40 0 7 30
34 75 67 11 8 40 15 64 15 l44 0 -45 -30z m117 -130 c33 -33 57 -60 54 -60 -2
0 -31 27 -64 60 -33 33 -57 60 -54 60 2 0 31 -27 64 -60z m-896 -137 c15 -87
20 -103 32 -103 21 0 71 -59 135 -160 63 -100 66 -107 54 -135 -7 -16 -16 -58
-21 -93 -16 -121 -40 -215 -57 -228 -22 -16 -56 -2 -60 25 -3 20 -18 26 -51
22 -7 -2 -10 2 -6 8 3 6 2 11 -4 11 -5 0 -11 -8 -14 -17 -2 -10 -2 88 1 217 4
210 -4 373 -24 488 -4 17 -4 32 -1 32 3 0 10 -30 16 -67z m948 45 c-3 -8 -6
-5 -6 6 -1 11 2 17 5 13 3 -3 4 -12 1 -19z m-17 -75 c-24 -94 -71 -245 -75
-241 -2 2 15 69 38 150 23 81 44 145 46 143 2 -3 -2 -26 -9 -52z m1267 -500
c-3 -10 -5 -4 -5 12 0 17 2 24 5 18 2 -7 2 -21 0 -30z m-1540 -645 c-3 -8 -6
-5 -6 6 -1 11 2 17 5 13 3 -3 4 -12 1 -19z m525 -283 c64 -29 90 -53 32 -29
-50 21 -106 57 -124 80 -11 14 -8 13 10 -3 14 -12 51 -34 82 -48z m278 -17 c0
-17 -10 -6 -25 25 l-16 32 20 -25 c11 -14 21 -28 21 -32z m554 24 c9 -14 -9
-31 -23 -23 -7 5 -10 14 -7 20 8 13 23 14 30 3z m-464 -144 c0 -18 -28 -6 -38
15 -6 12 -21 38 -33 57 -18 29 -14 26 24 -15 26 -27 46 -53 47 -57z m454 65
c-2 -21 -13 -83 -24 -138 -11 -55 -21 -113 -22 -130 -6 -58 -2 -58 -1612 66
-232 17 -308 27 -250 30 10 1 33 3 49 5 151 16 207 24 213 28 12 7 499 11 848
6 176 -2 450 38 425 63 -20 20 -11 36 22 40 31 4 31 4 -5 5 -21 1 -38 7 -38
13 0 6 8 8 18 5 10 -4 56 1 103 9 46 8 116 15 156 15 39 0 75 5 78 10 3 6 15
10 25 10 16 0 18 -6 14 -37z m-586 -80 c-10 -2 -28 -2 -40 0 -13 2 -5 4 17 4
22 1 32 -1 23 -4z m25 -446 c-3 -5 4 -4 15 2 15 8 23 7 31 -3 9 -10 8 -15 -5
-20 -35 -14 -227 3 -194 17 35 15 161 18 153 4z m-206 -3 c-3 -3 -12 -4 -19
-1 -8 3 -5 6 6 6 11 1 17 -2 13 -5z m556 -15 c169 1 199 -8 223 -64 8 -19 14
-39 14 -45 0 -6 -68 -10 -197 -10 -248 0 -518 11 -503 20 8 5 7 9 -4 13 -10 4
-16 18 -16 36 l0 30 124 -6 c87 -4 125 -3 130 6 4 6 2 11 -3 11 -6 0 -11 5
-11 11 0 8 15 9 48 4 26 -4 114 -7 195 -6z m-543 -21 c0 -2 -6 -20 -14 -41
-14 -41 -25 -37 -45 16 -10 26 -9 27 24 27 19 0 35 -1 35 -2z"/>
<path d="M1692 2700 c0 -14 2 -19 5 -12 2 6 2 18 0 25 -3 6 -5 1 -5 -13z"/>
<path d="M1850 2469 c-7 -11 -10 -23 -7 -25 2 -2 9 7 15 21 14 30 7 33 -8 4z"/>
<path d="M1806 2375 c-9 -26 -7 -32 5 -12 6 10 9 21 6 23 -2 3 -7 -2 -11 -11z"/>
<path d="M2888 963 c6 -2 18 -2 25 0 6 3 1 5 -13 5 -14 0 -19 -2 -12 -5z"/>
<path d="M2720 952 c0 -5 -24 -8 -52 -6 -48 3 -49 2 -18 -6 29 -7 21 -8 -40
-7 -111 1 -160 -2 -160 -12 0 -11 263 -24 328 -15 29 3 52 11 52 16 0 6 -10 7
-22 3 -47 -14 -118 -18 -118 -6 0 6 19 11 48 12 50 1 147 15 122 18 -68 9
-140 10 -140 3z"/>
<path d="M2793 893 c9 -2 23 -2 30 0 6 3 -1 5 -18 5 -16 0 -22 -2 -12 -5z"/>
<path d="M2806 4378 c-8 -18 -17 -44 -20 -58 -10 -37 11 -1 29 50 17 48 10 54
-9 8z"/>
<path d="M2480 3957 c0 -8 3 -17 8 -21 4 -4 7 -13 7 -19 0 -6 17 -16 39 -22
21 -6 44 -19 51 -28 11 -15 15 -12 44 28 23 32 28 46 19 49 -88 27 -168 33
-168 13z"/>
<path d="M948 3643 c7 -3 16 -2 19 1 4 3 -2 6 -13 5 -11 0 -14 -3 -6 -6z"/>
<path d="M122 3520 c-98 -46 -122 -68 -122 -109 l0 -36 44 3 c34 3 47 0 57
-16 8 -10 24 -24 37 -31 13 -7 22 -21 22 -35 0 -29 -33 -60 -58 -54 -15 4 -18
1 -14 -18 5 -28 -37 -74 -68 -74 -19 0 -20 -6 -20 -123 l0 -123 30 -23 c17
-12 36 -19 42 -15 7 4 8 3 4 -4 -6 -11 5 -16 25 -14 4 1 19 -10 33 -23 24 -22
45 -18 30 7 -4 7 -3 8 4 4 7 -4 12 -2 12 3 0 6 -4 11 -9 11 -11 0 -3 39 12 58
5 7 12 56 15 109 4 76 9 101 23 117 11 11 19 34 19 52 0 24 5 34 20 39 22 7
26 21 8 27 -7 3 -2 12 12 25 12 12 20 28 17 36 -3 8 1 23 9 34 14 17 14 16 4
-4 -16 -35 -4 -27 18 11 l20 34 -40 66 c-21 36 -46 66 -54 66 -8 0 -28 7 -43
14 -26 14 -33 13 -89 -14z m-52 -624 c0 -3 -4 -8 -10 -11 -5 -3 -10 -1 -10 4
0 6 5 11 10 11 6 0 10 -2 10 -4z"/>
<path d="M570 3435 c0 -3 17 -15 38 -28 20 -13 64 -51 96 -83 67 -67 57 -36
-12 38 -49 53 -122 96 -122 73z"/>
<path d="M458 3234 c-25 -57 -21 -140 7 -160 16 -12 21 -8 47 32 41 65 45 96
18 138 -12 20 -28 36 -36 36 -8 0 -24 -21 -36 -46z"/>
<path d="M3590 3245 c0 -8 7 -15 15 -15 9 0 12 6 9 15 -4 8 -10 15 -15 15 -5
0 -9 -7 -9 -15z"/>
<path d="M262 3190 c0 -14 2 -19 5 -12 2 6 2 18 0 25 -3 6 -5 1 -5 -13z"/>
<path d="M3616 3192 c-4 -12 -5 -31 -1 -42 5 -15 3 -18 -9 -14 -12 5 -13 1 -5
-23 18 -55 21 -63 30 -63 5 0 9 -9 9 -20 0 -11 7 -20 15 -20 8 0 19 -9 25 -20
6 -11 15 -18 21 -15 5 4 9 1 9 -6 0 -9 3 -10 10 -3 11 11 -36 144 -52 144 -5
0 -7 3 -5 8 3 4 -5 27 -18 51 -20 41 -23 43 -29 23z"/>
<path d="M252 3065 c0 -16 2 -22 5 -12 2 9 2 23 0 30 -3 6 -5 -1 -5 -18z"/>
<path d="M437 2934 c-4 -4 -7 -16 -7 -26 0 -11 -6 -40 -14 -66 -8 -26 -24 -96
-36 -157 -12 -60 -30 -137 -40 -170 -46 -156 -60 -202 -66 -230 -4 -16 -25
-73 -46 -125 -44 -109 -50 -156 -23 -176 22 -16 67 -18 115 -4 142 41 350 11
458 -66 29 -21 29 -5 -1 56 -18 37 -33 50 -87 77 -52 26 -130 54 -160 59 -37
5 -91 29 -106 46 -30 33 -56 111 -49 144 3 16 10 47 15 69 11 47 18 114 30
285 4 69 15 159 24 200 14 67 11 102 -7 84z"/>
<path d="M6 2844 c-3 -9 -6 -262 -5 -562 l1 -547 24 90 c29 113 48 236 37 244
-13 10 -33 49 -33 66 0 23 30 65 47 65 12 0 13 11 9 58 -4 39 -3 51 3 37 10
-20 10 -20 10 1 1 11 -3 24 -8 30 -5 5 -5 18 -1 29 l9 20 1 -20 c1 -11 8 5 16
35 13 55 10 95 -7 85 -14 -10 -10 12 6 28 8 8 11 17 8 20 -3 3 2 14 12 24 17
16 17 16 10 -7 -4 -14 -4 -21 1 -17 11 11 14 67 3 67 -6 0 -5 9 1 20 6 11 9
20 6 20 -3 0 -1 13 4 29 6 22 4 33 -6 42 -19 16 -18 26 6 32 23 6 27 27 6 27
-8 0 -21 6 -28 13 -7 7 -39 30 -70 49 -46 30 -57 34 -62 22z m97 -414 c3 -11
1 -18 -4 -14 -5 3 -9 12 -9 20 0 20 7 17 13 -6z"/>
<path d="M3760 2851 c0 -6 5 -13 10 -16 6 -3 10 1 10 9 0 9 -4 16 -10 16 -5 0
-10 -4 -10 -9z"/>
<path d="M176 2805 c-3 -8 -1 -15 4 -15 6 0 10 7 10 15 0 8 -2 15 -4 15 -2 0
-6 -7 -10 -15z"/>
<path d="M181 2684 c0 -11 3 -14 6 -6 3 7 2 16 -1 19 -3 4 -6 -2 -5 -13z"/>
<path d="M166 2625 c-9 -26 -7 -32 5 -12 6 10 9 21 6 23 -2 3 -7 -2 -11 -11z"/>
<path d="M3425 2110 c-3 -5 -2 -10 4 -10 5 0 13 5 16 10 3 6 2 10 -4 10 -5 0
-13 -4 -16 -10z"/>
<path d="M2170 1650 c-6 -11 -8 -20 -6 -20 3 0 10 9 16 20 6 11 8 20 6 20 -3
0 -10 -9 -16 -20z"/>
<path d="M2495 1610 c-4 -6 10 -10 34 -10 23 0 41 5 41 10 0 6 -15 10 -34 10
-19 0 -38 -4 -41 -10z"/>
<path d="M2402 1585 c-12 -26 -6 -30 23 -19 13 5 14 9 3 15 -8 6 0 6 20 3 25
-5 32 -3 32 10 0 12 -9 16 -33 16 -26 0 -36 -6 -45 -25z"/>
<path d="M2130 1566 c0 -9 5 -16 10 -16 6 0 10 4 10 9 0 6 -4 13 -10 16 -5 3
-10 -1 -10 -9z"/>
<path d="M2323 1555 c0 -8 6 -15 13 -15 8 0 11 6 8 15 -4 8 -9 15 -13 15 -4 0
-8 -7 -8 -15z"/>
<path d="M2800 1560 c8 -5 44 -9 80 -9 65 1 65 2 20 10 -66 11 -119 11 -100
-1z"/>
<path d="M2253 1533 c-7 -2 -13 -12 -12 -21 0 -11 2 -12 6 -4 2 6 13 12 23 12
10 0 22 5 25 10 6 10 -20 12 -42 3z"/>
<path d="M3020 1485 c0 -16 73 -186 77 -181 7 7 -43 142 -61 168 -9 12 -16 18
-16 13z"/>
<path d="M2483 1473 c9 -2 23 -2 30 0 6 3 -1 5 -18 5 -16 0 -22 -2 -12 -5z"/>
<path d="M1805 1450 c-23 -9 -53 -40 -39 -40 5 1 20 7 34 15 14 8 43 15 65 15
30 0 36 3 25 10 -18 12 -57 12 -85 0z"/>
</g>
</svg>
