<?xml version="1.0" encoding="utf-8"?>
<!-- Generator: Adobe Illustrator 18.0.0, SVG Export Plug-In . SVG Version: 6.00 Build 0)  -->
<!DOCTYPE svg PUBLIC "-//W3C//DTD SVG 1.1//EN" "http://www.w3.org/Graphics/SVG/1.1/DTD/svg11.dtd">
<svg version="1.1" id="Layer_1" xmlns="http://www.w3.org/2000/svg" xmlns:xlink="http://www.w3.org/1999/xlink" x="0px" y="0px"
	 viewBox="0 0 50 58.3" enable-background="new 0 0 50 58.3" xml:space="preserve">
<path fill-rule="evenodd" clip-rule="evenodd" fill="#3E3E3E" d="M5.6,49.2L5.6,49.2h38.7c1.6,0,2.8,1.2,2.8,2.7v1.5
	c0,1.6-1.2,2.9-2.8,2.9H5.6c-1.5,0-2.8-1.3-2.8-2.9v-1.5C2.8,50.4,4.1,49.2,5.6,49.2L5.6,49.2z"/>
<path fill-rule="evenodd" clip-rule="evenodd" fill="#70CAF2" d="M41.2,27.8L25.4,43.7c-0.2,0.2-0.5,0.2-0.7,0l-16-15.9
	c-0.2-0.2-0.2-0.5,0-0.7l2.1-2.1l12.6,12.6V3.4c0-0.9,0.7-1.7,1.7-1.7c1,0,1.8,0.8,1.8,1.7v34l12.2-12.3l2.1,2.1
	C41.4,27.3,41.4,27.6,41.2,27.8L41.2,27.8z"/>
</svg>
