<?xml version="1.0" encoding="UTF-8" standalone="no"?> <svg id="Layer_1" data-name="Layer 1" xmlns="http://www.w3.org/2000/svg" viewBox="0 0 128 128"><defs><style>.cls-1{fill:#2d3e50;}.cls-2{fill:#2e79bd;}</style></defs><title>b</title><path class="cls-1" d="M1.3325,33.12165V56.20528L56.03909,74.03a25.53205,25.53205,0,0,0,15.92128.00027l54.70713-17.825V33.12165Z"/><path class="cls-2" d="M64.00274,84.6296a34.92138,34.92138,0,0,1-10.8481-1.73308L1.33284,66.01016v52.54026H126.66713V66.01016L74.85081,82.89652A34.947,34.947,0,0,1,64.00274,84.6296Zm54.43783-7.28326v32.97752H9.55939V77.34634l41.045,13.3709a43.19171,43.19171,0,0,0,26.79666,0Z"/><polygon class="cls-2" points="41.125 18.773 86.876 18.773 89.557 26.352 99.446 26.352 93.468 9.45 34.533 9.45 28.555 26.352 38.443 26.352 41.125 18.773"/></svg>